<svg version="1" xmlns="http://www.w3.org/2000/svg" width="682.667" height="682.667" viewBox="0 0 512.000000 512.000000"><path d="M410.7.6c-.3.4-.2 1.5.4 2.5.7 1.3.6 1.9-.1 1.9s-.5.9.4 2.2c2.1 2.9 2 4.2-.1 3.4-1-.4-1.5-.4-1.1-.1.3.4-.2 1.5-1.3 2.6-2 2-2.6 4.9-.9 4.9.6 0 .9.3.8.7-.4 1.1 3.1 5.9 3.9 5.5 1.9-.9 1.1 1.8-.9 3.2-1.2.9-1.8 1.6-1.3 1.6.6 0 .3.6-.5 1.3-.9.7-1.5 1.9-1.4 2.7 0 .8-.5 2.5-1.3 3.7-1.5 2.6-.4 3 2.9 1.2 1.1-.6 1.8-.7 1.5-.2-.3.5.3 1.6 1.4 2.3 1 .8 1.9 2.1 1.9 3 0 .8.9 2.1 1.9 2.7 1.6 1 2 .9 2.5-.3.3-.9.1-1.2-.4-.9-.6.3-1 .1-1-.5 0-.7.8-.9 2-.5 1.1.3 2 .2 2-.4 0-.5.9-.9 2-.8 1.9.1 1.9.2-.2 2.4-1.2 1.3-1.8 2.3-1.4 2.3.4 0 .2.9-.3 1.9-.8 1.4-.7 2 .4 2.5.8.3 1.5 1.2 1.5 1.9s1.1 2 2.5 2.7c1.3.7 2.6 2 2.8 2.9.4 1.4.5 1.4.6 0 0-.9.8-2 1.7-2.3.8-.3 1.3-.2.9.3-.3.5.7 1.4 2.2 1.9 1.8.7 2.2 1.1 1.1 1.1-1 .1-1.8.6-1.8 1.2s.9.9 2 .6c1.2-.3 2.4.1 2.9 1.1.8 1.3 1.2 1.4 2.5.3 1.2-1 1.6-1 1.6-.2 0 .7.4 1 .9.6.5-.3 1.2-.1 1.6.5.3.5 1.7 1 3.1 1 2.1 0 2.4.4 2.4 3.7 0 2.5.3 3.3.9 2.5 1.4-2.2 2.4 1.6 2.2 7.9l-.3 5.6 4-.1c2.2-.1 4.7-.9 5.6-1.9 2.9-2.9 6.8-1.8 4.3 1.2-2.4 2.8-2.7 4.9-.9 5.4 1.6.4 1.5.5 0 .6-2.6.2-2.2 1.4 1.1 3.4 1.7 1 3.3 2.6 3.6 3.7.4 1.1 1 2 1.4 2 .5 0 .7 1.1.6 2.4-.2 1.8.1 2.3 1.5 1.9 1.1-.3 3.2 1 5.8 3.4 3.3 3.1 4 4.4 3.8 7-.2 1.8-.8 3.9-1.5 4.6-.9 1.2-.7 1.6 1 2 1.3.4 1.9.1 1.6-.6-.2-.7-.1-2 .2-2.9.6-1.5.8-1.5 2.9.2 1.3 1.1 2 2.4 1.6 3.4-.9 2.3-2.4 2-1.9-.4.2-1.1-.1-2-.6-2-.6 0-.9.6-.6 1.2.2.7.1 2-.4 2.8-.5 1.1-.2 1.6.9 1.6.9.1 2.5.5 3.5.9 1.1.4 1.7.3 1.5-.3-.4-1.5 5.1-7.4 6.3-6.6.6.4.6 1.1-.2 2-1 1.2-.8 1.3.7.8 1-.4 2.5-1.1 3.2-1.7.7-.5 1.2-.6 1.2 0 0 .5-.6 1.5-1.2 2.2-1.1 1-1 1.1.2.8.8-.2 1.2-.2.7.1-2 1.1-2.7 4.1-1.1 5.6 2.1 2.1 3.1 2 3.7-.3.3-1.4.1-1.8-.9-1.4-.8.3-1.4 0-1.4-.6 0-.7 1-1.1 2.3-1 6.2.6 5.7 6.2 5.7-62.1V0h-49c-30.6.1-48.8.5-48.5 1.1.4.5.1.9-.4.9-.6 0-1.1-.5-1.1-1 0-1.1-1.3-1.3-2.3-.4zM428 53.4c0 1.1-1.9 1.5-2.5.6-.3-.5.1-1 .9-1 .9 0 1.6.2 1.6.4zM472.8 91c-1.3 2.1-2.8 2.7-2.8 1 0-.5.8-1.4 1.8-1.9 2.3-1.4 2.4-1.4 1 .9zm1 6.6c-.4.3-1.2-.5-1.8-1.8-1.2-2.2-1.2-2.2.6-.6 1 1 1.5 2 1.2 2.4zM381.5 6.1c.4 2.2.1 2.3-2.5.9-1.3-.7-1.8-.6-1.6.3.5 2.6 3 6.7 4 6.7.6 0 .1.7-1.1 1.5-1.9 1.3-2.2 2.3-1.8 6.3.3 4.2.6 4.7 2.8 4.7 1.7 0 2.3.4 2 1.5-.3.9.3 2.2 1.1 2.9 1.4 1.1 1.6 1.1 1.6-.3 0-1.1-.5-1.4-1.2-1-.7.4-.8.3-.4-.5.5-.7 1.6-.9 2.9-.5 2.1.6 2.1.6.5-1.3-2-2.1-2.4-3.8-.8-2.8.6.3 1 .1 1-.4 0-.6-.3-1.1-.7-1.1-.5 0-.9-1.1-.9-2.4-.1-1.9.2-2.3 1.5-1.9.9.4 1.9 1.2 2.4 1.9.4.7 1.5 1 2.4.7 1-.4 1.4-.2.9.5-1 1.6 1.1 2.4 3.3 1.2 1.8-.9 1.9-1.4.9-3.6-.6-1.3-1.7-2.3-2.3-2-.9.3-1.1-.8-.8-3.8.5-3.7.2-4.4-1.5-4.8-1.1-.3-2.5-.1-3.2.6-.8.8-1.3.7-1.9-.3-.7-1.1-.9-1.1-1.4 0-.3.9-.6.6-.6-.7-.1-1.2-1.1-2.6-2.5-3.2-2.2-1-2.4-.9-2.1.9zM387.9 31.2c-.5 1.8-.6 3.8-.1 3.4.7-.8 1.2-3.6.6-3.6-.2 0-.4.1-.5.2z"/><path d="M495 124.4c0 .8-.7 1.7-1.6 2-2.4.9-1.2 2.9 2 3.3 1.8.3 2.5 0 2.1-.7-.3-.5-.1-1 .4-1 1.8 0 1.2 2.8-.6 3.2-1.5.3-1.5.5.3 1 2.4.6 5.7-1 3.7-1.8-.7-.3-.9-1.2-.6-2 .3-.8 0-1.4-.7-1.4-.9 0-.9-.4.1-1.7 1.3-1.5 1.1-1.6-1.3-1.1-1.5.3-2.5.1-2.2-.3.3-.5 0-.9-.5-.9-.6 0-1.1.6-1.1 1.4zM509.8 126.7c.7.3 1.6.2 1.9-.1.4-.3-.2-.6-1.3-.5-1.1 0-1.4.3-.6.6zM499.3 346c-.7 1-.9 2.1-.5 2.4 1 .6 4.3-3 3.5-3.8-1-1-1.8-.7-3 1.4zM495.6 347.5c-.3.8-.1 1.5.4 1.5.6 0 1-.7 1-1.5s-.2-1.5-.4-1.5-.6.7-1 1.5zM492 350.5c-.9 1.1-1 1.9-.3 2.6.8.8 1.1.6 1-.7-.1-1.1.4-1.8 1.1-1.6.8.1 1.1-.2.7-.8-.8-1.3-1-1.3-2.5.5zM491.2 356.2c.3.7-.2 1.9-1.1 2.6-.9.7-1.1 1.2-.6 1.1 1.7-.2 5.5 1.3 5.6 2.2.6 4 .4 4.4-2.6 4-1.7-.1-3.7-.7-4.6-1.1-.8-.5-2.2-.7-3-.5-3.8.9-5.9 1.8-5.9 2.7 0 .5-.4.7-1 .3-.5-.3-1.9.4-3 1.5-1.2 1.2-2.4 1.9-2.7 1.6-.5-.5-2.4.8-5.1 3.6-.9 1-2.2 1.8-3 1.8-.7 0-1.1.4-.8.9.3.5-.1 1.4-.9 2.1-.8.7-1.7 2.7-2.1 4.6-.3 1.9-1.1 3.1-1.6 2.8-.6-.4-.9-.1-.6.6.2.8-1.3 3-3.3 5-2 2-3.8 4.2-3.9 5-.4 2.9 0 4.1 1.3 3.4.9-.5.9-.4 0 .6-.6.7-.9 1.9-.6 2.6.8 2.1-1.4 1.7-3-.6-1.3-1.9-1.4-1.9-2.7.8-.8 1.5-1.5 3-1.7 3.3-.1.3.9 2.7 2.2 5.4 1.4 2.7 2.5 5.4 2.5 6.1 0 1.3-3.8 3-4.7 2-.3-.3-1.5 0-2.7.6-1.1.6-3.4 1.1-5.1 1-2.4-.2-3.2.3-4.2 2.5-.7 1.6-1.1 3.7-.9 4.8.4 2.4-1.9 4.9-3.9 4.1-.8-.3-1.5 0-1.5.5 0 .6-.9.9-2 .6-1-.3-2-.2-2.2.2-.2.4-1.9 1.9-3.8 3.3-2.7 2-4 2.4-5.7 1.7-1.3-.5-2.5-.4-2.8.2-.4.5-1.1.7-1.6.4-.5-.4-.9-.1-.9.5s-.5.8-1 .5c-.6-.4-1.7-.1-2.5.5-.8.7-1.5.9-1.6.4 0-.5-.4.1-1 1.4-.5 1.3-1.3 2-1.9 1.7-.5-.3-1-.2-1 .4 0 .5.6 1.2 1.3 1.4 1 .4 1 .6 0 .6-2.5.2-1.2 7.1 1.3 7.1 1.7 0 1.8 2.2.2 3.8-1 1-1 1.5.2 2.3 1.3.9 1.3 1-.1.6-.9-.3-2.2 0-2.8.6-.8.8-1.1.8-1.1 0 0-.6-.7-1.3-1.5-1.7-1.3-.5-1.4-.2-.4 1.5.8 1.7.8 2-.1 1.4-.8-.5-1.1-.3-.8.6.3.8 1.2 1.3 1.9 1.1.8-.1.5.4-.5 1.3-1.1.8-1.6 1.5-1.2 1.5 1.4 0-1.9 2.7-4.2 3.4-1.2.4-3 1.8-4 3.1-1.1 1.3-2.2 2.2-2.5 1.8-.4-.3-1.1.6-1.8 2-.9 2.1-1.6 2.4-4.2 2-1.7-.3-4.2-1.7-5.5-3.1l-2.4-2.6-1.5 2.8c-1.1 2-1.9 2.6-3.6 2.2-1.2-.3-1.7-.3-1.1 0 .7.3 1 1.4.7 2.4-.5 1.9-2.6 2.5-6.2 2-.8-.1-1.2.4-.8 1.4.7 1.7-1 1.3-6-1.7-2.9-1.7-7.3-2.2-13.8-1.5-1.1.1-2.9-.2-4.1-.5-1.7-.6-2.3-.2-3.2 2.5-.9 2.7-1.1 1.3-.9-8.4.1-6.5 0-11-.3-10.2-1.1 2.9-3.1-6.5-3.3-14.5 0-4.7-.3-6.6-.7-5.1-.4 1.4-.5 5.4-.3 9l.4 6.5-2.5-4c-3-4.6-3-4.9-1.4-7.8 1-2 1-2.1-.5-.8-1.1.9-1.7 1-1.8.2-.3-2.6-.4-3-1.1-3.7-1.5-1.4-.8-2.6.7-1.4 1.3 1.1 1.4 1 .9-.4-.3-.9-1-1.6-1.4-1.6-1.2 0-4.1-6.1-3.4-7.1.3-.5 1.3-.9 2.3-.9 1 0 2.6-.9 3.6-2s2.4-2 3.1-2c1.6 0 5.9-5.9 4.9-6.8-.3-.4-1.1.1-1.6 1-.5 1-2.9 3.1-5.2 4.7-4 2.7-4.4 2.8-7.1 1.4-2.7-1.4-2.8-1.4-2.1.6.4 1.5.2 2.1-.8 2.1-1.6 0-3.8-2.3-6.1-6.5-1.4-2.4-1.5-2.5-1-.6.5 2.1.4 2.3-1.2 1.6-1.1-.4-2.8-1-3.9-1.3-1.1-.2-2.8-1.2-3.8-2-1.6-1.4-1.7-1.4-1.2 0 .6 1.5 5.7 4.3 7.8 4.3.5 0 1.4.8 2.1 1.7.7 1 1.8 1.8 2.3 1.8.5 0 1.5 1.2 2.2 2.6.9 2.2.8 3-1 5.5-2.4 3.5-5.6 3.7-9.3.8-1.5-1.1-3.3-1.9-4-1.6-.9.4-2-.7-3-2.6-.8-1.8-1.6-2.8-1.6-2.3s-1.2-.1-2.8-1.5l-2.7-2.4 2.8 3.1c2.3 2.6 2.6 3.3 1.4 4.3-1.9 1.5-1.9 5.7-.1 7.2 1.2.9 1.3.9.8-.4-.9-2.4 1.8-4.6 4.8-4 1.4.3 3.8 1.5 5.4 2.8 2.3 1.9 2.6 2.6 1.7 3.6-1 1-1.7.8-3.4-1.2-1.5-1.6-2-1.8-1.6-.7.4 1 1 2.6 1.4 3.5.3 1 .3 1.5-.1 1.2-.4-.4-1.9.4-3.3 1.7-1.4 1.3-3 2.4-3.4 2.4-.4 0-2.5 1.6-4.6 3.5-4.7 4.3-5.7 4.4-4.8.5.4-1.9.3-3-.5-3-.6 0-1.5-1-2.1-2.3-.8-1.8-.8-1.5-.4 1.4 1 6.9-.4 7.4-4.2 1.5-2.8-4.6-3.3-6.1-2.7-9.1.6-3.6-.8-5-2-1.8-.5 1.2-1.4.2-3.5-3.9-4.9-9.3-4.3-19.2 1.5-28.8 4.5-7.6 10.9-13.5 18.1-16.9 8.2-3.9 12.1-4.7 12.9-2.7.3.9 1 1.4 1.4 1.1.5-.3 1.3.3 1.9 1.2.6 1 1.1 1.3 1.1.7 0-1.4-3.8-5.4-5.3-5.4-.7-.1-.5-.6.5-1.4 1-.7 1.5-1.5 1.3-1.8-.3-.3 1.2-2.5 3.3-4.9 4.2-4.9 8.2-10.4 8.2-11.3 0-.4-1.7 1-3.7 3.1-2.1 2-3.8 4-3.8 4.4 0 .4-2 3.2-4.5 6.3-4.2 5.3-5.5 6.1-8.9 5.7-.8-.2-1 .2-.5 1s.3 1-.5.4c-.8-.4-2.5.1-4.2 1.4-1.5 1.1-3.4 2.1-4.1 2.1-1.9 0-12.2 11.3-15.6 17.2-2.6 4.4-3.2 5-3.7 3.3-1-3.2-2.1-5-3.1-5-.5 0-2-.8-3.4-1.8-1.9-1.3-2.5-2.6-2.4-5.5 0-3.4 2.2-12.4 4.4-17.9.7-1.6.6-2.1-.3-1.7-.7.2-1.3 1.3-1.4 2.3-.1 1.1-.9 4-1.7 6.5-.9 2.6-1.6 5.3-1.6 6.1 0 2.2-1.9 2.8-3.6 1-1-1-1.7-3.4-1.8-6.1-.1-3.5-.5-4.4-1.9-4.4-1.5 0-1.5.3-.5 2.1 1 1.7 1 2.3.1 2.6-.9.3-.8 1.1.4 2.9.9 1.4 1.7 3.7 1.9 5.2.1 1.4 1.4 3.5 2.8 4.5 2.4 1.7 3.9 6.6 1.6 5.2-1.5-.9-1.2.1 1.1 4.7 1.1 2.2 1.8 4.9 1.6 6-.3 1.2.3 2.8 1.5 4 2.2 2.2 2.1 4.3-.1 16.7-.8 4.4-.9 7.3-.2 9.5 1.6 4.9 3.2 16.3 2.5 18-.3.9-1.2 1.6-2 1.6s-1.4.7-1.4 1.5-.6 2.4-1.2 3.5c-1.1 1.7-1 2.6.4 5 1.4 2.5 1.5 3 .3 3-.8 0-1.5-.6-1.5-1.4 0-2.1-3-2.9-3.1-.8 0 1.2-.3.9-1-.8-.8-2-1.2-2.2-2-1-.7 1.3-1 1.3-1.8.1-.5-.7-1.4-1.1-2-.7-.6.4-.3 1.4 1.1 2.8 1.7 1.7 1.9 2.3.8 2.6-.8.3-1.6 0-1.8-.6-.2-.7-1.2-1.2-2.3-1.2-1.4 0-1.9.7-1.9 2.8 0 1.5-.6 3.4-1.2 4.1-1 1.1-1 1.3 0 .7.7-.4 1.2-.1 1.2.8 0 1-.6 1.3-1.7.9-1.2-.4-1.1 0 .5 1.1 1.2 1 2.2 2.8 2.2 4.1 0 1.3.5 2.7 1.2 3.1.7.4.8.3.4-.4-1.3-2.2.5-1.2 3.5 1.9l3.1 3.2-2.6 2.4c-1.4 1.3-2.6 2.6-2.6 2.8 0 .3 60.8.5 135 .5h135V367.1l-3.4-.6c-1.9-.4-4.3-.4-5.4-.1-1.1.4-2.4.1-3-.7-.9-1.1-.5-1.3 2.1-1 2.2.3 2.8.2 1.8-.5-.8-.6-.9-1.2-.3-1.6 1.2-.7.4-4.6-.9-4.6-.5 0-.9.4-.9 1 0 1.6-4.9 2.3-6.5 1-.8-.7-1.3-1.5-1.1-1.9.3-.4-.4-1.3-1.6-2-1.7-1-1.9-1-1.6.1zm-241.1 47.5c1.3 1.6 1.2 1.7-.3.4-1.7-1.3-2.2-2.1-1.4-2.1.2 0 1 .8 1.7 1.7zm203 6c1.3 1.6 1.2 1.7-.3.4-1.5-1.1-1.9-1.1-2.4.3-.8 2-2.4 2.1-2.4.2 0-.8.8-1.7 1.8-1.9.9-.3 1.8-.5 1.8-.6.1 0 .8.7 1.5 1.6zm-193.6 6.7c2 3.7 1.4 8.9-.9 8-1.7-.7-4.6-8-4.6-11.8 0-2.8.1-2.8 1.9-1.2 1 .9 2.6 3.1 3.6 5zm1.2 13.8c-.3.8-.6.5-.6-.6-.1-1.1.2-1.7.5-1.3.3.3.4 1.2.1 1.9zm3.3 13c4.2 8 3.7 9.3-1.5 4.2-4.5-4.2-5-5.8-3.8-10.2.7-2.8 1-2.5 5.3 6zm49.4-3.5c.1 1 .9 3.4 1.8 5.3 1.8 3.8 5.8 16.2 5.8 18 0 .6-1 1.5-2.2 2l-2.3.9h2.3c1.7.1 2.2.7 2.2 2.9 0 1.6-.3 3.2-.7 3.5-1.1 1.1-4.3-7.3-4.3-11.3 0-5.4-1.7-9.6-4.5-10.8-1.6-.8-2.3-1.7-1.9-2.7.3-.8.1-1.5-.6-1.5-.6 0-.8.4-.5 1 .3.5.1 1-.5 1-1.5 0-.5-3.1 2.3-7.4 2.3-3.6 2.9-3.7 3.1-.9zm123.6 5.8c0 .8-.2 1.5-.4 1.5s-.6-.7-1-1.5c-.3-.8-.1-1.5.4-1.5.6 0 1 .7 1 1.5zm-175.7 5.4c-.4 1.4-.4 1.4.6.1.9-1.3 1.3-1.2 2.6.7.9 1.3 2.2 2.3 2.9 2.3 1.8 0 2.4 1.7 2 5.8-.4 4.9-1.2 6.5-2.9 5.8-.8-.3-1.5-.1-1.5.4 0 .6.9 1 2 1 2.1 0 2.9 3.3 1.1 4.4-1.5 1-4.2-.5-3.9-2.2.2-.9-.6-1.8-1.7-2.1-2.2-.6-2.5-1.5-3-7.6-.2-2.2-.9-5.6-1.5-7.5-.5-1.9-1-4.3-1-5.3 0-1.7.2-1.7 2.4.4 1.3 1.3 2.2 3 1.9 3.8zm47.9-.2c1.8 1.5 3.6 3.2 4 3.8 1.2 1.6 1 19.5-.2 19.5-.5 0-1 .7-1 1.6 0 .8-.4 1.3-1 .9-.5-.3-.6-1.3-.3-2.3.6-1.4.4-1.5-.8-.5-1.6 1.3-8.9.7-8.9-.7 0-.4-1.1-1.8-2.5-3.1-1.3-1.3-2.5-3-2.5-3.8 0-.8.3-1.1.7-.8.3.4 1.2.2 1.9-.3.6-.6 1.8-.9 2.5-.8.8.2 1.3-.3 1.2-1-.2-.6.2-1.2.7-1.2 1.3 0 1.3-2.7.1-3.5-1.1-.6-5.8 1.2-8.3 3.3-1.3 1.1-1.5 1.9-.6 3.7 1.1 2.4.5 5.5-.9 5.5s-3.1-4.8-2.1-5.8c.6-.6.4-1.1-.6-1.5-1.1-.4-1.4.1-1.1 2.5.3 1.6.7 3.9 1.1 5 .6 2 .6 2-1.7-.1-1.2-1.1-2.5-1.7-2.8-1.2-.6.8-3.9.7-4.8-.3-.3-.2-.2-1 .2-1.6.5-.8 1-.8 2.1.1 1 .8 1.7.7 3.1-.7 1.7-1.7 1.7-1.7.1-1.1-1 .3-2.5.4-3.3.1-1.2-.5-.5-1.7 2.9-5 2.4-2.4 4.6-4.4 5-4.4.4 0 1.2-.5 1.9-1 4.6-3.9 10.4-7.9 11.4-7.9.6-.1 2.6 1.1 4.5 2.6zM275 464c0 .9.5 2.1 1.2 2.8.9.9.9 1.5.1 2.3-.6.6-.9 1.7-.7 2.4.3.6-.3 1.8-1.2 2.6-1.2.9-1.5 1-1 .1.4-.6.2-1.2-.4-1.2-.7 0-1-2.5-.9-7.2.2-6.3.4-6.9 1.5-5.3.8 1 1.4 2.6 1.4 3.5zm49 .7c0 .7-.4 1.3-1 1.3-.5 0-1-1.2-1-2.8 0-2.1.2-2.4 1-1.2.5.8 1 2.1 1 2.7zm2 7.1c0 .7-.4 1.1-.9.8-.5-.3-1.2.1-1.5 1-.9 2.4-.7 2.8.8 1.4 1.2-.9 1.6-.6 2.1 2.3.4 2 .3 4.3-.3 5.3-1.6 2.8-4.4-2.3-3.6-6.7.3-1.9.6-4.6.6-6.1.1-2.5.2-2.6 1.4-1 .7.9 1.4 2.3 1.4 3zm-9.8 6.7c-.9 1.1-1 1.4-.2.7 2-1.7 2.5-1.5 3.8 1.3 2.5 5.5.5 11.3-2.8 8.2-1-1-1.2-.7-.7 1.1.3 1.2.1 2-.4 1.6-.5-.3-.9-1.2-.9-2s-.4-1.4-.9-1.4c-.6 0-.6-1.2 0-3.2 1.2-4.2 1.1-4.4-.3-3-1.9 1.9-3.2 1.4-5-1.9-1-1.7-2.2-2.7-2.8-2.4-.5.3-1 .1-1-.5 0-1.2 3.8-.4 5.5 1.1 1.6 1.5 2.1 1.1 4.1-3.2l1.8-4.2.8 2.9c.5 2 .3 3.4-1 4.9zm-46.7-3.5c.3.6-.4 1-1.7 1-1.8 0-2-.2-.8-1 1.9-1.2 1.8-1.2 2.5 0zm14.4 2.4c-1.2 1-5.9 1.5-5.9.6 0-.5 1.4-1 3.2-1 1.7 0 2.9.2 2.7.4zm2.1 3c0 .2-.7.7-1.6 1-.8.3-1.2.2-.9-.4.6-1 2.5-1.4 2.5-.6zm-25.2 2.9c.4 2.2-.1 2.1-2.2-.2-1.7-1.9-1.7-1.9.1-1.7 1 .2 1.9 1 2.1 1.9zm1.2 3.1c0 .3-.4.8-1 1.1-.5.3-1 .1-1-.4 0-.6.5-1.1 1-1.1.6 0 1 .2 1 .4zm-19 1c0 1.1-1.9 1.5-2.5.6-.3-.5.1-1 .9-1 .9 0 1.6.2 1.6.4zm76.2 5.8c-.7.7-1.2.8-1.2.2 0-1.4 1.2-2.6 1.9-1.9.2.3-.1 1.1-.7 1.7zm-75.5.4c-.3.3-1.2.4-1.9.1-.8-.3-.5-.6.6-.6 1.1-.1 1.7.2 1.3.5zm1.3 3.5c0 .6-.4.7-1 .4-.5-.3-1-1.1-1-1.6 0-.6.5-.7 1-.4.6.3 1 1.1 1 1.6zm8 6.4c0 .3-.4.4-.9.1-.5-.4-1.1-.3-1.4.1-.2.5-.3.3-.1-.3.1-.6-.2-1.7-.7-2.5-.7-1.1-.9-1-.9.5 0 1.1-.3 1.7-.6 1.3-.4-.3-.4-1.4 0-2.3.6-1.6.8-1.5 2.6.4 1.1 1.2 2 2.4 2 2.7z"/><path d="M286.5 464c-.3.5-.1 1 .4 1 .6 0 1.1-.5 1.1-1 0-.6-.2-1-.4-1-.3 0-.8.4-1.1 1zM491.5 363c-.3.5.1 1 1 1s1.3-.5 1-1c-.3-.6-.8-1-1-1-.2 0-.7.4-1 1zM509.7 363.7c-1.2 1.2-.7 2.2.8 1.7.8-.4 1.5-1 1.5-1.5 0-1.1-1.4-1.2-2.3-.2zM302 398c0 .5.5 1 1 1 .6 0 1-.5 1-1 0-.6-.4-1-1-1-.5 0-1 .4-1 1zM280.4 417.2c.3 1 .9 2.5 1.2 3.3.5 1.2 0 1.4-2.7 1-3.2-.5-3.3-.5-.9.6 1.4.7 2.9 1.1 3.3 1 .5-.1.6.3.2.9-.5.8-1.1.8-2 0-.7-.6-1.5-.7-1.8-.3-.8 1.5.5 9.4 1.5 9.1.5-.2.9-.8.9-1.3 0-1.5 2.7-2.7 4.2-1.9.9.6.9.4-.1-.8-.9-1.1-1-1.8-.2-2.3.5-.3 1-1.5 1-2.6 0-1 .2-1.9.5-1.9 1.5 0 6.5 3.2 7.7 4.8.7 1 2.2 2.2 3.3 2.5 1.4.6 1.2.1-.8-1.5-1.5-1.3-2.9-3.2-3.1-4.2-.2-1.4-1.1-2-3.1-2.1-1.6 0-3-.6-3.3-1.3-.2-.7-1.2-1.2-2.2-1.2-1.1 0-2.4-.8-3-1.8-1.1-1.6-1.1-1.6-.6 0zM300 431c.8.5 2 1 2.5 1 .6 0 .3-.5-.5-1s-1.9-1-2.5-1c-.5 0-.3.5.5 1zM293.3 431.7c-1.7.6-1.6 2 .1 2.6.8.3 1.9 0 2.6-.7 1.2-1.5-.5-2.7-2.7-1.9zM276 434.4c0 .8.7 1.6 1.5 2 .9.3 1.5 0 1.5-.8s-.7-1.6-1.5-2c-.9-.3-1.5 0-1.5.8zM281 434.5c0 .8.4 1.5 1 1.5.5 0 .7-.7.4-1.5-.4-.8-.8-1.5-1-1.5-.2 0-.4.7-.4 1.5zM322 435.8c0 .5.7.9 1.5.9s1.2-.4.9-.9c-.3-.4-.9-.8-1.5-.8-.5 0-.9.4-.9.8zM326.6 436.5c-.3.9-.6 2.2-.5 2.8 0 .7.5.1 1-1.2s.8-2.6.5-2.8c-.2-.2-.6.3-1 1.2zM291.1 451.6c0 1.1.3 1.4.6.6.3-.7.2-1.6-.1-1.9-.3-.4-.6.2-.5 1.3zM222.1 456.6c0 1.1.3 1.4.6.6.3-.7.2-1.6-.1-1.9-.3-.4-.6.2-.5 1.3zM222.2 462c0 1.4.2 1.9.5 1.2.2-.6.2-1.8 0-2.5-.3-.6-.5-.1-.5 1.3zM219.9 466.3c-1.8 1.3-5.3 7.6-4.6 8.3.2.3 1-.9 1.7-2.6.7-1.7 2.2-3.7 3.3-4.5 1.2-.8 1.9-1.7 1.6-1.9-.2-.2-1.1.1-2 .7zM229.9 471.7c-1.3 1.6-1.2 1.7.4.4 1.6-1.3 2.1-2.1 1.3-2.1-.2 0-1 .8-1.7 1.7zM213.4 479.2c-.4 1.8-.7 3.9-.5 4.7.3 1.8-3.2 13.1-4.1 13.1-.5 0-.8 1.4-.8 3.2 0 4.8 7.1 11.8 12 11.8 2.7-.1 3.1-.3 1.8-1-.9-.6-1.4-1.8-1.1-2.9.5-2.2-2.1-3.5-4.4-2.2-1.9 1-6.3-2.4-6.3-4.9 0-3.8 3.2-11 4.9-11 1.8 0 5.1-2.9 5.1-4.6.1-.5 1.7-2.2 3.8-3.8 3-2.3 3.3-2.7 1.2-2.1-2.2.7-2.3.6-1.1-.9 1.1-1.4 1.1-1.6-.2-1.6-.9 0-2.7 2.3-4.2 5.4-1.5 3-3.4 5.7-4.2 6-1.4.6-1.5-.3-1.1-5.9.6-7.2.4-8.2-.8-3.3zm9.6 1.2c0 .2-.7.9-1.5 1.6-1.3 1.1-1.4 1-.9-.4.5-1.4 2.4-2.3 2.4-1.2zM238.1 476.4c.2.2 1.4.9 2.7 1.5 1.8 1 2.2.9 2.2-.4 0-1-.9-1.5-2.7-1.5-1.4 0-2.4.2-2.2.4zM238.5 481c-.3.5-.1 1 .4 1 .6 0 1.1-.5 1.1-1 0-.6-.2-1-.4-1-.3 0-.8.4-1.1 1zM237.6 510.6c-.4.9.1 1.4 1.4 1.4 2.3 0 2.7-1.5.6-2.3-.8-.3-1.7.1-2 .9z"/></svg>